<?xml version="1.0" encoding="UTF-8" standalone="no"?>
<!-- Created with Inkscape (http://www.inkscape.org/) -->

<svg
   xmlns:dc="http://purl.org/dc/elements/1.1/"
   xmlns:cc="http://creativecommons.org/ns#"
   xmlns:rdf="http://www.w3.org/1999/02/22-rdf-syntax-ns#"
   xmlns:svg="http://www.w3.org/2000/svg"
   xmlns="http://www.w3.org/2000/svg"
   xmlns:sodipodi="http://sodipodi.sourceforge.net/DTD/sodipodi-0.dtd"
   xmlns:inkscape="http://www.inkscape.org/namespaces/inkscape"
   width="32mm"
   height="32mm"
   viewBox="0 0 32 32"
   version="1.1"
   id="svg8"
   inkscape:export-filename="C:\dmportfolio\src\assets\images\projects.png"
   inkscape:export-xdpi="96"
   inkscape:export-ydpi="96"
   inkscape:version="0.92.4 (5da689c313, 2019-01-14)"
   sodipodi:docname="projects.svg">
  <defs
     id="defs2" />
  <sodipodi:namedview
     id="base"
     pagecolor="#ffffff"
     bordercolor="#666666"
     borderopacity="1.0"
     inkscape:pageopacity="0.0"
     inkscape:pageshadow="2"
     inkscape:zoom="2.8"
     inkscape:cx="-18.110237"
     inkscape:cy="61.715454"
     inkscape:document-units="mm"
     inkscape:current-layer="layer1"
     showgrid="false"
     inkscape:window-width="1600"
     inkscape:window-height="837"
     inkscape:window-x="-8"
     inkscape:window-y="-8"
     inkscape:window-maximized="1" />
  <metadata
     id="metadata5">
    <rdf:RDF>
      <cc:Work
         rdf:about="">
        <dc:format>image/svg+xml</dc:format>
        <dc:type
           rdf:resource="http://purl.org/dc/dcmitype/StillImage" />
        <dc:title></dc:title>
      </cc:Work>
    </rdf:RDF>
  </metadata>
  <g
     inkscape:label="Layer 1"
     inkscape:groupmode="layer"
     id="layer1"
     transform="translate(0,-265)">
    <rect
       style="fill:#ae4c05;fill-opacity:1;stroke:#000000;stroke-width:0.06102084;stroke-linejoin:round;stroke-miterlimit:4;stroke-dasharray:0, 0.67122924;stroke-dashoffset:0;stroke-opacity:0.021164"
       id="rect2297"
       width="6.7190561"
       height="15.695992"
       x="12.184743"
       y="277.90723" />
    <path
       style="fill:#ae4c05;fill-opacity:1;stroke:#000000;stroke-width:0.02801324;stroke-linejoin:round;stroke-miterlimit:4;stroke-dasharray:0, 0.30814556;stroke-dashoffset:0;stroke-opacity:0.021164"
       d="m 24.25916,283.35049 c -0.789718,-1.43633 -1.013051,-1.75409 -1.701329,-2.42063 l -0.79228,-0.76725 -4.844206,0.0377 c -2.664312,0.0209 -5.650828,0.10966 -6.636699,0.19738 l -1.7924937,0.15952 -0.3777108,1.16514 c -0.2193874,0.67675 -0.4426873,1.1973 -0.5327252,1.24185 -0.085258,0.0423 -0.3516111,0.0776 -0.5918954,0.0787 l -0.436881,8.6e-4 -0.047858,-3.76114 c -0.026322,-2.0686 -0.06785,-4.59566 -0.092286,-5.61567 l -0.044428,-1.85457 0.2578908,-0.0764 c 0.1418398,-0.0419 0.4132943,-0.0933 0.6032322,-0.11382 l 0.3453413,-0.0375 0.4108498,1.27774 0.4108498,1.27771 3.1512522,0.0932 c 1.733189,0.0512 3.8867,0.0933 4.785579,0.0934 1.181486,1.9e-4 1.969361,0.0785 2.843471,0.28226 1.151529,0.26854 1.265249,0.32448 2.386577,1.17386 0.850645,0.64435 1.39043,1.16066 1.944875,1.86031 l 0.767446,0.96841 0.349005,1.68885 c 0.306781,1.48454 0.675126,4.46345 0.574482,4.64602 -0.01706,0.031 -0.440085,-0.68777 -0.940061,-1.59712 z"
       id="path2303"
       inkscape:connector-curvature="0" />
    <path
       style="fill:#974c06;fill-opacity:1;stroke:#000000;stroke-width:0.26996624;stroke-linejoin:round;stroke-miterlimit:4;stroke-dasharray:none;stroke-opacity:1"
       d="M 46.139763,82.836571 V 57.657999 h -1.019565 c -1.38153,0 -9.870019,0.655628 -11.716113,0.904921 l -1.485679,0.200623 -1.119108,3.485371 c -0.615509,1.916957 -1.431198,3.998564 -1.812643,4.6258 -0.612056,1.006446 -0.879387,1.140428 -2.275457,1.140428 h -1.581921 l -0.197798,-2.589286 c -0.360476,-4.718835 -0.635273,-39.475667 -0.313676,-39.674425 0.172148,-0.106393 1.126459,-0.301352 2.120692,-0.433241 l 1.807695,-0.2398 1.523311,4.822081 1.523311,4.82208 9.505618,0.237901 c 24.068162,0.602363 28.670365,0.834111 31.744598,1.598527 1.624296,0.403885 3.55905,1.043383 4.29945,1.421108 2.134453,1.088917 7.571714,5.440306 9.680196,7.74697 3.800457,4.157673 4.695836,5.612319 5.415439,8.798026 1.330354,5.889491 3.241686,19.918631 2.713718,19.918631 -0.110236,0 -1.118557,-1.647322 -2.240718,-3.660715 -3.320589,-5.957835 -4.894768,-8.204071 -7.649932,-10.915874 l -2.6073,-2.566269 H 76.79682 71.139763 v 25.357143 25.357141 h -12.5 -12.5 z"
       id="path1393"
       inkscape:connector-curvature="0"
       transform="matrix(0.26458333,0,0,0.26458333,0,265)"
       inkscape:export-xdpi="96"
       inkscape:export-ydpi="96" />
  </g>
</svg>
