<?xml version="1.0" encoding="UTF-8" standalone="no"?>
<!-- Created with Inkscape (http://www.inkscape.org/) -->

<svg
   xmlns:osb="http://www.openswatchbook.org/uri/2009/osb"
   xmlns:dc="http://purl.org/dc/elements/1.1/"
   xmlns:cc="http://creativecommons.org/ns#"
   xmlns:rdf="http://www.w3.org/1999/02/22-rdf-syntax-ns#"
   xmlns:svg="http://www.w3.org/2000/svg"
   xmlns="http://www.w3.org/2000/svg"
   xmlns:sodipodi="http://sodipodi.sourceforge.net/DTD/sodipodi-0.dtd"
   xmlns:inkscape="http://www.inkscape.org/namespaces/inkscape"
   width="32mm"
   height="32mm"
   viewBox="0 0 32 32"
   version="1.1"
   id="svg8"
   inkscape:export-filename="C:\dmportfolio\src\assets\images\skills.png"
   inkscape:export-xdpi="96"
   inkscape:export-ydpi="96"
   inkscape:version="0.92.4 (5da689c313, 2019-01-14)"
   sodipodi:docname="x_icon.svg">
  <defs
     id="defs2">
    <linearGradient
       id="linearGradient2372"
       osb:paint="solid">
      <stop
         style="stop-color:#ae4c05;stop-opacity:1;"
         offset="0"
         id="stop2370" />
    </linearGradient>
  </defs>
  <sodipodi:namedview
     id="base"
     pagecolor="#ffffff"
     bordercolor="#666666"
     borderopacity="1.0"
     inkscape:pageopacity="0.0"
     inkscape:pageshadow="2"
     inkscape:zoom="2.8"
     inkscape:cx="21.711192"
     inkscape:cy="61.715454"
     inkscape:document-units="mm"
     inkscape:current-layer="layer1"
     showgrid="false"
     inkscape:window-width="1600"
     inkscape:window-height="837"
     inkscape:window-x="-8"
     inkscape:window-y="-8"
     inkscape:window-maximized="1" />
  <metadata
     id="metadata5">
    <rdf:RDF>
      <cc:Work
         rdf:about="">
        <dc:format>image/svg+xml</dc:format>
        <dc:type
           rdf:resource="http://purl.org/dc/dcmitype/StillImage" />
        <dc:title></dc:title>
      </cc:Work>
    </rdf:RDF>
  </metadata>
  <g
     inkscape:label="Layer 1"
     inkscape:groupmode="layer"
     id="layer1"
     transform="translate(0,-265)">
    <text
       xml:space="preserve"
       style="font-style:normal;font-weight:normal;font-size:48.18193054px;line-height:1.25;font-family:sans-serif;letter-spacing:0px;word-spacing:0px;fill:#000000;fill-opacity:1;stroke:none;stroke-width:4.51705551"
       x="-1.6005167"
       y="322.41382"
       id="text834"
       transform="scale(1.0848782,0.92176249)"><tspan
         sodipodi:role="line"
         id="tspan832"
         x="-1.6005167"
         y="322.41382"
         style="stroke-width:4.51705551">X</tspan></text>
    <path
       style="fill:#ffffff;fill-opacity:1;stroke:#000000;stroke-width:0.26996624;stroke-linejoin:round;stroke-miterlimit:4;stroke-dasharray:none;stroke-opacity:1"
       d="M 1.1457341,120.60443 C 1.5703887,120.06425 12.711518,106.47549 25.903798,90.407181 39.096078,74.338874 49.944171,61.03726 50.010667,60.848042 50.077163,60.658824 39.269128,46.926885 25.992809,30.332619 12.716491,13.738355 1.8540491,0.08014503 1.8540491,-0.01895736 c 0,-0.09910239 4.78125,-0.17749093 10.6249999,-0.17419675 l 10.625,0.005989 12.142857,15.58690111 c 6.678572,8.572796 15.392236,19.749923 19.363697,24.83806 l 7.220839,9.25116 19.827261,-24.84405 19.827257,-24.84404983 h 10.2394 c 9.72129,0 10.21182,0.0316246 9.69451,0.625 C 121.12018,0.76960646 110.00588,14.283682 96.721417,30.457136 81.293974,49.239606 72.66471,60.02096 72.835949,60.299492 c 0.255354,0.415343 47.468581,59.357228 48.591121,60.662078 0.51046,0.59335 -0.0122,0.62449 -10.32124,0.61487 L 100.24691,121.5663 80.635606,96.376228 C 62.046181,72.498724 60.993356,71.219849 60.430381,71.832792 60.103724,72.188442 51.018038,83.528535 40.239971,97.032999 L 20.643479,121.58657 H 10.508557 0.37363475 Z"
       id="path836"
       inkscape:connector-curvature="0"
       transform="matrix(0.26458333,0,0,0.26458333,0,265)"
       inkscape:export-xdpi="96"
       inkscape:export-ydpi="96" />
  </g>
</svg>
